# xmcd
#
# Track frame offsets:
# 150
# 21582
# 40723
# 64562
# 78573
# 101222
# 121161
# 147498
# 160312
# 179813
#
# Disc length: 2849 seconds
#
# Revision: 1
# Processed by: cddbd v1.5.2PL0 Copyright (c) Steve Scherf et al.
# Submitted via: CedeCatalogueitor 2.6.0.6 http://personales.ya.com/cdcatalogueitor
#
DISCID=8e0b1f0a
DTITLE=Travolta - Manual De Redención
DYEAR=1900
DGENRE=
TTITLE0=Un Buen Hombre
TTITLE1=Cosas Grandes Y Cosas Pequeñas
TTITLE2=Esa Luz Que Ella Vio
TTITLE3=Dime Qué Es
TTITLE4=Esa Canción Nos Salvo
TTITLE5=Hoy Tengo Ganas De Verte
TTITLE6=La Brisa Del Mundo
TTITLE7=Voy Adonde Esta La Guerra
TTITLE8=Cuando El Se Va
TTITLE9=En El Rio Aquel (a Veces Pienso En Mi Entierro)
EXTD=
EXTT0=
EXTT1=
EXTT2=
EXTT3=
EXTT4=
EXTT5=
EXTT6=
EXTT7=
EXTT8=
EXTT9=
PLAYORDER=
